<mxfile host="app.diagrams.net" modified="2023-11-05T23:02:18.715Z" agent="Mozilla/5.0 (Windows NT 10.0; Win64; x64; rv:109.0) Gecko/20100101 Firefox/119.0" etag="G3zDfxdn0SUa4FtQSTw8" version="22.0.8" type="github">
  <diagram name="Page-1" id="Pg2AayzT4zrMlpKfh4fH">
    <mxGraphModel dx="1195" dy="652" grid="1" gridSize="10" guides="1" tooltips="1" connect="1" arrows="1" fold="1" page="1" pageScale="1" pageWidth="850" pageHeight="1100" background="#C3D3ED" math="0" shadow="0">
      <root>
        <mxCell id="0" />
        <mxCell id="1" parent="0" />
        <mxCell id="jhFPVCva8DzUEqr8aobs-30" value="&lt;font face=&quot;Verdana&quot;&gt;consists of&lt;/font&gt;" style="edgeStyle=orthogonalEdgeStyle;rounded=0;orthogonalLoop=1;jettySize=auto;html=1;labelBackgroundColor=none;" parent="1" source="jhFPVCva8DzUEqr8aobs-3" target="jhFPVCva8DzUEqr8aobs-13" edge="1">
          <mxGeometry x="0.0769" y="-41" relative="1" as="geometry">
            <mxPoint as="offset" />
          </mxGeometry>
        </mxCell>
        <mxCell id="jhFPVCva8DzUEqr8aobs-31" style="edgeStyle=orthogonalEdgeStyle;rounded=1;orthogonalLoop=1;jettySize=auto;html=1;" parent="1" source="jhFPVCva8DzUEqr8aobs-3" target="jhFPVCva8DzUEqr8aobs-9" edge="1">
          <mxGeometry relative="1" as="geometry" />
        </mxCell>
        <mxCell id="NVtW60CTdqGW47sM3Ra_-9" style="edgeStyle=orthogonalEdgeStyle;shape=connector;rounded=1;orthogonalLoop=1;jettySize=auto;html=1;labelBackgroundColor=default;strokeColor=default;align=center;verticalAlign=middle;fontFamily=Helvetica;fontSize=11;fontColor=default;endArrow=classic;" edge="1" parent="1" source="jhFPVCva8DzUEqr8aobs-3" target="jhFPVCva8DzUEqr8aobs-21">
          <mxGeometry relative="1" as="geometry">
            <Array as="points">
              <mxPoint x="589" y="370" />
            </Array>
          </mxGeometry>
        </mxCell>
        <mxCell id="NVtW60CTdqGW47sM3Ra_-10" value="consists of" style="edgeStyle=orthogonalEdgeStyle;shape=connector;rounded=1;orthogonalLoop=1;jettySize=auto;html=1;labelBackgroundColor=none;strokeColor=default;align=center;verticalAlign=middle;fontFamily=Helvetica;fontSize=11;fontColor=default;endArrow=classic;" edge="1" parent="1" source="jhFPVCva8DzUEqr8aobs-3" target="jhFPVCva8DzUEqr8aobs-34">
          <mxGeometry x="0.4764" y="40" relative="1" as="geometry">
            <Array as="points">
              <mxPoint x="540" y="420" />
            </Array>
            <mxPoint as="offset" />
          </mxGeometry>
        </mxCell>
        <mxCell id="jhFPVCva8DzUEqr8aobs-3" value="&lt;div&gt;Card&lt;/div&gt;" style="swimlane;fontStyle=0;childLayout=stackLayout;horizontal=1;startSize=30;horizontalStack=0;resizeParent=1;resizeParentMax=0;resizeLast=0;collapsible=1;marginBottom=0;whiteSpace=wrap;html=1;rounded=1;labelBackgroundColor=default;fillColor=default;" parent="1" vertex="1">
          <mxGeometry x="329" y="320" width="140" height="120" as="geometry" />
        </mxCell>
        <mxCell id="jhFPVCva8DzUEqr8aobs-4" value="Cost" style="text;strokeColor=none;fillColor=none;align=left;verticalAlign=middle;spacingLeft=4;spacingRight=4;overflow=hidden;points=[[0,0.5],[1,0.5]];portConstraint=eastwest;rotatable=0;whiteSpace=wrap;html=1;" parent="jhFPVCva8DzUEqr8aobs-3" vertex="1">
          <mxGeometry y="30" width="140" height="30" as="geometry" />
        </mxCell>
        <mxCell id="jhFPVCva8DzUEqr8aobs-17" value="Effect" style="text;strokeColor=none;fillColor=none;align=left;verticalAlign=middle;spacingLeft=4;spacingRight=4;overflow=hidden;points=[[0,0.5],[1,0.5]];portConstraint=eastwest;rotatable=0;whiteSpace=wrap;html=1;" parent="jhFPVCva8DzUEqr8aobs-3" vertex="1">
          <mxGeometry y="60" width="140" height="30" as="geometry" />
        </mxCell>
        <mxCell id="jhFPVCva8DzUEqr8aobs-33" value="Legal Zone" style="text;strokeColor=none;fillColor=none;align=left;verticalAlign=middle;spacingLeft=4;spacingRight=4;overflow=hidden;points=[[0,0.5],[1,0.5]];portConstraint=eastwest;rotatable=0;whiteSpace=wrap;html=1;fontStyle=0;fontColor=#009900;" parent="jhFPVCva8DzUEqr8aobs-3" vertex="1">
          <mxGeometry y="90" width="140" height="30" as="geometry" />
        </mxCell>
        <mxCell id="jhFPVCva8DzUEqr8aobs-9" value="Creature" style="swimlane;fontStyle=0;childLayout=stackLayout;horizontal=1;startSize=30;horizontalStack=0;resizeParent=1;resizeParentMax=0;resizeLast=0;collapsible=1;marginBottom=0;whiteSpace=wrap;html=1;rounded=1;" parent="1" vertex="1">
          <mxGeometry x="139" y="40" width="140" height="150" as="geometry" />
        </mxCell>
        <mxCell id="jhFPVCva8DzUEqr8aobs-10" value="Attack" style="text;strokeColor=none;fillColor=none;align=left;verticalAlign=middle;spacingLeft=4;spacingRight=4;overflow=hidden;points=[[0,0.5],[1,0.5]];portConstraint=eastwest;rotatable=0;whiteSpace=wrap;html=1;" parent="jhFPVCva8DzUEqr8aobs-9" vertex="1">
          <mxGeometry y="30" width="140" height="30" as="geometry" />
        </mxCell>
        <mxCell id="jhFPVCva8DzUEqr8aobs-11" value="Defense" style="text;strokeColor=none;fillColor=none;align=left;verticalAlign=middle;spacingLeft=4;spacingRight=4;overflow=hidden;points=[[0,0.5],[1,0.5]];portConstraint=eastwest;rotatable=0;whiteSpace=wrap;html=1;" parent="jhFPVCva8DzUEqr8aobs-9" vertex="1">
          <mxGeometry y="60" width="140" height="30" as="geometry" />
        </mxCell>
        <mxCell id="jhFPVCva8DzUEqr8aobs-12" value="Effect" style="text;strokeColor=none;fillColor=none;align=left;verticalAlign=middle;spacingLeft=4;spacingRight=4;overflow=hidden;points=[[0,0.5],[1,0.5]];portConstraint=eastwest;rotatable=0;whiteSpace=wrap;html=1;" parent="jhFPVCva8DzUEqr8aobs-9" vertex="1">
          <mxGeometry y="90" width="140" height="30" as="geometry" />
        </mxCell>
        <mxCell id="jhFPVCva8DzUEqr8aobs-18" value="Creature Zone" style="text;strokeColor=none;fillColor=none;align=left;verticalAlign=middle;spacingLeft=4;spacingRight=4;overflow=hidden;points=[[0,0.5],[1,0.5]];portConstraint=eastwest;rotatable=0;whiteSpace=wrap;html=1;fontColor=#006600;" parent="jhFPVCva8DzUEqr8aobs-9" vertex="1">
          <mxGeometry y="120" width="140" height="30" as="geometry" />
        </mxCell>
        <mxCell id="jhFPVCva8DzUEqr8aobs-13" value="Spell" style="swimlane;fontStyle=0;childLayout=stackLayout;horizontal=1;startSize=30;horizontalStack=0;resizeParent=1;resizeParentMax=0;resizeLast=0;collapsible=1;marginBottom=0;whiteSpace=wrap;html=1;rounded=1;" parent="1" vertex="1">
          <mxGeometry x="329" y="40" width="140" height="90" as="geometry" />
        </mxCell>
        <mxCell id="jhFPVCva8DzUEqr8aobs-14" value="Effect" style="text;strokeColor=none;fillColor=none;align=left;verticalAlign=middle;spacingLeft=4;spacingRight=4;overflow=hidden;points=[[0,0.5],[1,0.5]];portConstraint=eastwest;rotatable=0;whiteSpace=wrap;html=1;" parent="jhFPVCva8DzUEqr8aobs-13" vertex="1">
          <mxGeometry y="30" width="140" height="30" as="geometry" />
        </mxCell>
        <mxCell id="jhFPVCva8DzUEqr8aobs-19" value="No Zone" style="text;strokeColor=none;fillColor=none;align=left;verticalAlign=middle;spacingLeft=4;spacingRight=4;overflow=hidden;points=[[0,0.5],[1,0.5]];portConstraint=eastwest;rotatable=0;whiteSpace=wrap;html=1;fontColor=#006600;" parent="jhFPVCva8DzUEqr8aobs-13" vertex="1">
          <mxGeometry y="60" width="140" height="30" as="geometry" />
        </mxCell>
        <mxCell id="jhFPVCva8DzUEqr8aobs-20" value="&lt;div&gt;Building&lt;/div&gt;" style="swimlane;fontStyle=0;childLayout=stackLayout;horizontal=1;startSize=30;horizontalStack=0;resizeParent=1;resizeParentMax=0;resizeLast=0;collapsible=1;marginBottom=0;whiteSpace=wrap;html=1;rounded=1;" parent="1" vertex="1">
          <mxGeometry x="519" y="40" width="140" height="60" as="geometry" />
        </mxCell>
        <mxCell id="jhFPVCva8DzUEqr8aobs-21" value="Building Zone" style="text;strokeColor=none;fillColor=none;align=left;verticalAlign=middle;spacingLeft=4;spacingRight=4;overflow=hidden;points=[[0,0.5],[1,0.5]];portConstraint=eastwest;rotatable=0;whiteSpace=wrap;html=1;fontColor=#006600;" parent="jhFPVCva8DzUEqr8aobs-20" vertex="1">
          <mxGeometry y="30" width="140" height="30" as="geometry" />
        </mxCell>
        <mxCell id="NVtW60CTdqGW47sM3Ra_-6" style="edgeStyle=orthogonalEdgeStyle;rounded=1;orthogonalLoop=1;jettySize=auto;html=1;" edge="1" parent="1" source="jhFPVCva8DzUEqr8aobs-34" target="NVtW60CTdqGW47sM3Ra_-5">
          <mxGeometry relative="1" as="geometry">
            <Array as="points">
              <mxPoint x="540" y="630" />
              <mxPoint x="540" y="630" />
            </Array>
          </mxGeometry>
        </mxCell>
        <mxCell id="NVtW60CTdqGW47sM3Ra_-11" style="edgeStyle=orthogonalEdgeStyle;shape=connector;rounded=0;orthogonalLoop=1;jettySize=auto;html=1;labelBackgroundColor=none;strokeColor=default;align=center;verticalAlign=middle;fontFamily=Helvetica;fontSize=11;fontColor=default;endArrow=classic;" edge="1" parent="1" source="jhFPVCva8DzUEqr8aobs-34" target="NVtW60CTdqGW47sM3Ra_-1">
          <mxGeometry relative="1" as="geometry" />
        </mxCell>
        <mxCell id="jhFPVCva8DzUEqr8aobs-34" value="&lt;div&gt;Deck&lt;/div&gt;" style="rounded=1;whiteSpace=wrap;html=1;" parent="1" vertex="1">
          <mxGeometry x="480" y="530" width="120" height="60" as="geometry" />
        </mxCell>
        <mxCell id="NVtW60CTdqGW47sM3Ra_-13" style="edgeStyle=orthogonalEdgeStyle;shape=connector;orthogonalLoop=1;jettySize=auto;html=1;labelBackgroundColor=none;strokeColor=default;align=center;verticalAlign=middle;fontFamily=Helvetica;fontSize=11;fontColor=default;endArrow=classic;rounded=1;" edge="1" parent="1" source="NVtW60CTdqGW47sM3Ra_-1" target="NVtW60CTdqGW47sM3Ra_-4">
          <mxGeometry relative="1" as="geometry" />
        </mxCell>
        <mxCell id="NVtW60CTdqGW47sM3Ra_-14" style="edgeStyle=orthogonalEdgeStyle;shape=connector;rounded=1;orthogonalLoop=1;jettySize=auto;html=1;labelBackgroundColor=none;strokeColor=default;align=center;verticalAlign=middle;fontFamily=Helvetica;fontSize=11;fontColor=default;endArrow=classic;" edge="1" parent="1" source="NVtW60CTdqGW47sM3Ra_-1" target="NVtW60CTdqGW47sM3Ra_-2">
          <mxGeometry relative="1" as="geometry">
            <Array as="points">
              <mxPoint x="180" y="560" />
            </Array>
          </mxGeometry>
        </mxCell>
        <mxCell id="NVtW60CTdqGW47sM3Ra_-1" value="Hand" style="rounded=1;whiteSpace=wrap;html=1;" vertex="1" parent="1">
          <mxGeometry x="209" y="530" width="120" height="60" as="geometry" />
        </mxCell>
        <mxCell id="NVtW60CTdqGW47sM3Ra_-15" style="edgeStyle=orthogonalEdgeStyle;shape=connector;rounded=1;orthogonalLoop=1;jettySize=auto;html=1;labelBackgroundColor=none;strokeColor=default;align=center;verticalAlign=middle;fontFamily=Helvetica;fontSize=11;fontColor=default;endArrow=classic;" edge="1" parent="1" source="NVtW60CTdqGW47sM3Ra_-2" target="NVtW60CTdqGW47sM3Ra_-3">
          <mxGeometry relative="1" as="geometry">
            <Array as="points">
              <mxPoint x="180" y="790" />
            </Array>
          </mxGeometry>
        </mxCell>
        <mxCell id="NVtW60CTdqGW47sM3Ra_-2" value="Creature Zone" style="rounded=1;whiteSpace=wrap;html=1;fontColor=#006600;" vertex="1" parent="1">
          <mxGeometry x="120" y="640" width="120" height="60" as="geometry" />
        </mxCell>
        <mxCell id="NVtW60CTdqGW47sM3Ra_-3" value="Discard Pile" style="rounded=1;whiteSpace=wrap;html=1;" vertex="1" parent="1">
          <mxGeometry x="480" y="760" width="120" height="60" as="geometry" />
        </mxCell>
        <mxCell id="NVtW60CTdqGW47sM3Ra_-16" style="edgeStyle=orthogonalEdgeStyle;shape=connector;rounded=1;orthogonalLoop=1;jettySize=auto;html=1;labelBackgroundColor=none;strokeColor=default;align=center;verticalAlign=middle;fontFamily=Helvetica;fontSize=11;fontColor=default;endArrow=classic;" edge="1" parent="1" source="NVtW60CTdqGW47sM3Ra_-4" target="NVtW60CTdqGW47sM3Ra_-3">
          <mxGeometry relative="1" as="geometry">
            <Array as="points">
              <mxPoint x="355" y="790" />
            </Array>
          </mxGeometry>
        </mxCell>
        <mxCell id="NVtW60CTdqGW47sM3Ra_-4" value="Building Zone" style="rounded=1;whiteSpace=wrap;html=1;fontColor=#006600;" vertex="1" parent="1">
          <mxGeometry x="295" y="640" width="120" height="60" as="geometry" />
        </mxCell>
        <mxCell id="NVtW60CTdqGW47sM3Ra_-5" value="Deck Pile" style="rounded=1;whiteSpace=wrap;html=1;" vertex="1" parent="1">
          <mxGeometry x="480" y="650" width="120" height="60" as="geometry" />
        </mxCell>
        <mxCell id="NVtW60CTdqGW47sM3Ra_-22" style="edgeStyle=orthogonalEdgeStyle;shape=connector;rounded=1;orthogonalLoop=1;jettySize=auto;html=1;labelBackgroundColor=none;strokeColor=default;align=center;verticalAlign=middle;fontFamily=Helvetica;fontSize=11;fontColor=default;endArrow=classic;" edge="1" parent="1" source="NVtW60CTdqGW47sM3Ra_-18" target="jhFPVCva8DzUEqr8aobs-17">
          <mxGeometry relative="1" as="geometry" />
        </mxCell>
        <mxCell id="NVtW60CTdqGW47sM3Ra_-18" value="Effect" style="rounded=1;whiteSpace=wrap;html=1;fontFamily=Helvetica;fontSize=11;fontColor=default;" vertex="1" parent="1">
          <mxGeometry x="670" y="365" width="120" height="60" as="geometry" />
        </mxCell>
        <mxCell id="NVtW60CTdqGW47sM3Ra_-23" style="edgeStyle=orthogonalEdgeStyle;shape=connector;rounded=1;orthogonalLoop=1;jettySize=auto;html=1;entryX=0.5;entryY=0;entryDx=0;entryDy=0;labelBackgroundColor=none;strokeColor=default;align=center;verticalAlign=middle;fontFamily=Helvetica;fontSize=11;fontColor=default;endArrow=classic;" edge="1" parent="1" source="NVtW60CTdqGW47sM3Ra_-20" target="NVtW60CTdqGW47sM3Ra_-18">
          <mxGeometry relative="1" as="geometry" />
        </mxCell>
        <mxCell id="NVtW60CTdqGW47sM3Ra_-20" value="Floop" style="whiteSpace=wrap;html=1;fontSize=11;rounded=1;" vertex="1" parent="1">
          <mxGeometry x="670" y="225" width="120" height="60" as="geometry" />
        </mxCell>
      </root>
    </mxGraphModel>
  </diagram>
</mxfile>
